# xmcd
#
# Track frame offsets: 
#        150
#        25666
#        41095
#        64228
#        82579
#        105313
#        131955
#        153627
#        176519
#        199854
#
# Disc length: 3033 seconds
#
# Revision: 0
# Processed by: cddbd v1.5.2PL0 Copyright (c) Steve Scherf et al.
# Submitted via: ExactAudioCopy v1.0b3
#
DISCID=7d0bd70a
DTITLE=Mong Thi - Chieu Mua Qua Song
DYEAR=1999
DGENRE=
TTITLE0=Xa roi hanh phuc gian nan
TTITLE1=Ga chieu pho nho
TTITLE2=Chieu mua qua song
TTITLE3=Mot minh thoi
TTITLE4=Tinh voi
TTITLE5=Tam su doi toi
TTITLE6=Biet den bao gio
TTITLE7=Muoi nam doi cho
TTITLE8=Tieng quoc dem trang
TTITLE9=Duyen phan
EXTD=
EXTT0=
EXTT1=
EXTT2=
EXTT3=
EXTT4=
EXTT5=
EXTT6=
EXTT7=
EXTT8=
EXTT9=
PLAYORDER=
